<?xml version="1.0" encoding="iso-8859-1"?>
<!-- Generator: Adobe Illustrator 19.0.0, SVG Export Plug-In . SVG Version: 6.00 Build 0)  -->
<svg version="1.1" id="Layer_1" xmlns="http://www.w3.org/2000/svg" xmlns:xlink="http://www.w3.org/1999/xlink" x="0px" y="0px"
	 viewBox="0 0 512 512" style="enable-background:new 0 0 512 512;" xml:space="preserve">
<g>
	<path style="fill:#3C1146;" d="M401.712,160.36c-44.212,0-80.18-35.968-80.18-80.18S357.5,0,401.712,0s80.18,35.968,80.18,80.18
		S445.923,160.36,401.712,160.36z M401.712,30.228c-27.544,0-49.952,22.408-49.952,49.952s22.408,49.952,49.952,49.952
		c27.544,0,49.952-22.408,49.952-49.952S429.254,30.228,401.712,30.228z"/>
	<path style="fill:#3C1146;" d="M412.686,512h-21.333c-17,0-31.998-12.05-35.663-28.652l-32.639-147.856
		c-0.236-1.07-0.355-2.163-0.355-3.257V221.02c0-25.05,20.378-45.43,45.43-45.43H435.3c25.05,0,45.43,20.378,45.43,45.43v111.215
		c0,1.199-0.144,2.394-0.425,3.558l-5.252,21.678c-1.966,8.11-10.137,13.092-18.247,11.13c-8.112-1.965-13.096-10.135-11.13-18.247
		l4.826-19.925v-109.41c0-8.382-6.819-15.202-15.202-15.202h-67.174c-8.382,0-15.202,6.819-15.202,15.202v109.566l32.282,146.248
		c0.632,2.863,3.216,4.939,6.145,4.939h21.333c2.87,0,5.378-1.941,6.094-4.72l19.635-76.043
		c2.086-8.081,10.332-12.947,18.413-10.856c8.083,2.087,12.942,10.33,10.856,18.413l-19.635,76.043
		C443.884,500.736,429.343,512,412.686,512z"/>
</g>
<path style="fill:#D4A8B4;" d="M488.855,353.904l-19.39-138.59c-2.216-14.166-14.419-24.61-28.759-24.61h-77.987
	c-14.339,0-26.543,10.442-28.759,24.61l-19.39,138.59H488.855z"/>
<g>
	<path style="fill:#3C1146;" d="M488.855,369.017H314.569c-4.374,0-8.533-1.895-11.404-5.196c-2.87-3.299-4.171-7.681-3.564-12.013
		l19.391-138.588c0.011-0.08,0.023-0.16,0.035-0.24c3.387-21.664,21.761-37.389,43.69-37.389h77.988
		c21.929,0,40.303,15.725,43.69,37.389c0.014,0.08,0.026,0.16,0.035,0.24l19.391,138.588c0.606,4.332-0.694,8.715-3.564,12.013
		C497.388,367.121,493.229,369.017,488.855,369.017z M331.945,338.789h139.533l-16.964-121.24
		c-1.112-6.804-6.904-11.732-13.81-11.732h-77.988c-6.904,0-12.696,4.927-13.81,11.732L331.945,338.789z"/>
	<path style="fill:#3C1146;" d="M88.21,160.36c-44.21,0-80.178-35.968-80.178-80.18S44,0,88.21,0c44.212,0,80.18,35.968,80.18,80.18
		S132.422,160.36,88.21,160.36z M88.21,30.228c-27.544,0-49.95,22.408-49.95,49.952s22.407,49.952,49.95,49.952
		s49.952-22.408,49.952-49.952S115.754,30.228,88.21,30.228z"/>
	<path style="fill:#3C1146;" d="M99.182,512H77.884c-17.034,0-32.039-12.078-35.678-28.718L10.098,336.538
		c-0.6-2.74-0.904-5.556-0.904-8.366V221.02c0-25.05,20.38-45.43,45.43-45.43h67.174c25.05,0,45.43,20.378,45.43,45.43v109.751
		c0,2.166-0.258,4.332-0.768,6.44c-1.962,8.113-10.132,13.105-18.243,11.138c-7.998-1.933-12.959-9.901-11.218-17.901V221.02
		c0-8.382-6.819-15.202-15.202-15.202H54.622c-8.382,0-15.202,6.819-15.202,15.202v107.152c0,0.641,0.07,1.282,0.206,1.903
		l32.108,146.747c0.627,2.869,3.213,4.95,6.148,4.95H99.18c2.87,0,5.378-1.942,6.094-4.722l19.999-77.53
		c2.086-8.081,10.324-12.951,18.41-10.859c8.083,2.084,12.945,10.327,10.861,18.41L134.545,484.6
		C130.385,500.733,115.842,512,99.182,512z"/>
</g>
<path style="fill:#D4A8B4;" d="M151.342,334.304L151.342,334.304c0.509-1.369,0.771-2.819,0.771-4.279V221.02
	c0-16.743-13.572-30.316-30.316-30.316H54.624c-16.743,0-30.316,13.572-30.316,30.316v109.005c0,7.339,7.138,12.259,12.259,12.259
	h103.288C144.974,342.285,149.555,339.102,151.342,334.304z"/>
<g>
	<path style="fill:#3C1146;" d="M139.855,357.399H36.567c-12.947,0-27.373-11.242-27.373-27.373V221.02
		c0-25.05,20.38-45.43,45.43-45.43h67.174c25.05,0,45.43,20.378,45.43,45.43v109.005c0,3.272-0.579,6.487-1.721,9.554
		C161.535,350.238,151.227,357.399,139.855,357.399z M39.422,327.17H137V221.02c0-8.382-6.819-15.202-15.202-15.202H54.624
		c-8.382,0-15.202,6.819-15.202,15.202V327.17z"/>
	<path style="fill:#3C1146;" d="M242.68,451.437c-8.347,0-15.114-6.768-15.114-15.114V104.583c0-8.346,6.767-15.114,15.114-15.114
		s15.114,6.768,15.114,15.114v331.738C257.794,444.669,251.028,451.437,242.68,451.437z"/>
</g>
<g>
</g>
<g>
</g>
<g>
</g>
<g>
</g>
<g>
</g>
<g>
</g>
<g>
</g>
<g>
</g>
<g>
</g>
<g>
</g>
<g>
</g>
<g>
</g>
<g>
</g>
<g>
</g>
<g>
</g>
</svg>
