<?xml version="1.0" encoding="iso-8859-1"?>
<!-- Generator: Adobe Illustrator 19.0.0, SVG Export Plug-In . SVG Version: 6.00 Build 0)  -->
<svg version="1.1" id="Layer_1" xmlns="http://www.w3.org/2000/svg" xmlns:xlink="http://www.w3.org/1999/xlink" x="0px" y="0px"
	 viewBox="0 0 504 504" style="enable-background:new 0 0 504 504;" xml:space="preserve">
<circle style="fill:#FFD05B;" cx="252" cy="252" r="252"/>
<path style="fill:#F1543F;" d="M106,282.4c7.2,0,9.6-5.2,10.8-12.4c2-12.8,4.8-25.6,7.6-38c0.8-3.6,4-6.4,8.4-12.4
	c1.6,6.4,2.8,8.8,2.8,11.6c0.4,4.8,0,10,0,14.8c0,41.6,0,133.2,0,157.2c0,3.2,2.8,6,6,6h7.6c3.2,0,6-2.8,6-6c0-24.4,0-59.6,0-82.4
	c0-10.8,6-15.6,16.4-13.2c8.4,1.6,9.6,8,9.6,14.8c0,22,0,56.8,0,80.8c0,3.2,2.8,6,6,6h7.6c3.2,0,6-2.8,6-6l0,0c0-46,0-107.2,0-153.2
	c0-4.4,1.2-8.8,1.6-13.6c1.6-0.4,1.6-0.4,2.8-0.8c2.4,3.2,5.6,6.4,7.6,9.6c6.8,10,12.8,20,19.6,30c3.2,4.4,6.8,6.8,10,7.2v-32.8
	c-14.8-22.8-28.4-44.4-42.8-64.8c-3.2-4.8-10.8-8.4-16.8-9.2c-11.6-1.6-24-0.8-35.6-0.4c-4.8,0.4-10.4,1.6-13.6,4.4
	c-27.2,23.6-39.2,54.4-40,89.6C94.4,276.8,98.4,282.4,106,282.4z"/>
<path style="fill:#324A5E;" d="M254.8,275.2c6-8.4,11.2-17.2,17.2-26c3.6-5.2,7.2-10,12.8-17.6c3.6,14,1.2,24-3.2,34
	c-7.6,16.4-15.2,32.8-23.2,48.8c-4,8.4-1.2,12.4,8,12c6.4,0,12.8,0,19.6,0c0.4,3.6,1.2,6,1.2,8c0,18,0,48.4,0,68.8c0,3.2,2.8,6,6,6
	h7.6c3.2,0,6-2.8,6-6c0-16.4,0-42,0-55.6c0-22.8,0-22.8,22.8-20.4c0.8,0,1.2,0.8,3.2,2c0,3.2,0,7.6,0,11.6c0,16-0.4,44.4,0,62.8
	c0,3.2,2.8,6,6,6h7.6c3.2,0,6-2.8,6-6c0-16.8,0-42.8,0-56.8c0-6.4,0-12.8,0-19.6c7.2,0,12,0,17.2,0c14.8,0,16.4-2.8,10-16.4
	c-7.6-16.8-16-33.2-22.8-50.4c-2.8-6.8-3.2-14.8-4.4-22.4c2.4-1.2,2-0.8,4-2c2.4,3.6,4.8,7.2,7.6,10.4c8.4,10,16.4,20.4,25.6,29.2
	c5.6,5.2,13.6,4.4,18-2.8c4.4-7.2,0.4-12-5.6-16.4c-5.2-3.6-10-8.4-13.2-14c-11.2-18.8-21.6-38-32-57.2c-3.6-6.8-8.4-10.4-16.4-10.4
	c-12.4,0.4-24.8-0.8-36.8,0.4c-5.6,0.4-12.4,4-15.6,8.8c-12.8,18-24.4,37.2-36.8,55.6c-2,3.2-4.4,6-7.2,9.6V282
	C247.6,282.8,251.2,280.4,254.8,275.2z"/>
<path style="fill:#FF7058;" d="M204.4,130.4c0,20-15.6,36-35.6,36.4c-19.6,0.4-35.6-16-36-36s15.6-36,35.6-36.4
	C188,94.4,204.4,110.8,204.4,130.4z"/>
<path style="fill:#324A5E;" d="M355.2,131.2c-0.4,20-16.4,36-36,35.6c-19.6-0.4-35.6-16.4-35.2-36.4c0-19.6,16.8-36,36.4-35.6
	C340,94.8,355.2,111.2,355.2,131.2z"/>
<g>
	<path style="fill:#FFFFFF;" d="M170.8,202c4.4-5.2,10.4-6.4,14.8-4.8c10.8,4,13.2,19.2,4,28.8c-18.8,19.6-18.8,19.6-18.8,19.6
		s0,0-18.8-19.6c-9.2-9.6-6.8-24.8,4-28.8C160.4,195.6,166.4,196.8,170.8,202z"/>
	<path style="fill:#FFFFFF;" d="M323.6,202c4.4-5.2,10.4-6.4,14.8-4.8c10.8,4,13.2,19.2,4,28.8c-18.8,19.6-18.8,19.6-18.8,19.6
		s0,0-18.8-19.6c-9.2-9.6-6.8-24.8,4-28.8C313.2,195.6,319.2,196.8,323.6,202z"/>
</g>
<g>
</g>
<g>
</g>
<g>
</g>
<g>
</g>
<g>
</g>
<g>
</g>
<g>
</g>
<g>
</g>
<g>
</g>
<g>
</g>
<g>
</g>
<g>
</g>
<g>
</g>
<g>
</g>
<g>
</g>
</svg>
