<?xml version="1.0" encoding="iso-8859-1"?>
<!-- Generator: Adobe Illustrator 19.0.0, SVG Export Plug-In . SVG Version: 6.00 Build 0)  -->
<svg version="1.1" id="Layer_1" xmlns="http://www.w3.org/2000/svg" xmlns:xlink="http://www.w3.org/1999/xlink" x="0px" y="0px"
	 viewBox="0 0 512.008 512.008" style="enable-background:new 0 0 512.008 512.008;" xml:space="preserve">
<path style="fill:#98C8ED;" d="M284.278,245.183c-13.997,0-27.328-2.848-39.446-7.997c-50.335-21.386-67.679-84.151-36.316-128.953
	L284.278,0l75.763,108.232c31.362,44.804,14.019,107.569-36.316,128.953C311.606,242.335,298.275,245.183,284.278,245.183z"/>
<path style="fill:#7AB9E8;" d="M360.041,108.232L284.278,0v245.183c13.997,0,27.328-2.848,39.446-7.997
	C374.058,215.802,391.403,153.036,360.041,108.232z"/>
<path style="fill:#F2B3D8;" d="M464.034,283.117c-11.211-11.842-29.904-12.036-41.359-0.581l0.003,0.003L317.052,388.165
	c-8.114,8.114-19.12,12.673-30.595,12.673h-63.665v-40.214h35.69v-0.009c15.454-0.309,28.408-12.517,28.834-28.029
	c0.447-16.3-12.634-29.656-28.834-29.656v0.003h-65.115c-22.951,0-44.961,9.118-61.189,25.346l-56.241,56.241l91.785,91.785
	l10.198-10.198h106.932c22.951,0,44.961-9.117,61.189-25.346l117.43-117.43l-0.006-0.006
	C474.173,312.18,474.701,294.387,464.034,283.117z"/>
<rect x="88.934" y="358.748" transform="matrix(-0.7071 0.7071 -0.7071 -0.7071 504.6691 667.1008)" style="fill:#88888F;" width="50.478" height="158.646"/>
<path style="fill:#E592BF;" d="M464.034,283.117c-11.211-11.842-29.904-12.036-41.359-0.581l0.003,0.003L317.052,388.165
	c-8.114,8.114-19.12,12.673-30.595,12.673h-2.178v65.269h0.574c22.951,0,44.961-9.116,61.189-25.346l117.43-117.43l-0.006-0.006
	C474.173,312.18,474.701,294.387,464.034,283.117z"/>
<g>
</g>
<g>
</g>
<g>
</g>
<g>
</g>
<g>
</g>
<g>
</g>
<g>
</g>
<g>
</g>
<g>
</g>
<g>
</g>
<g>
</g>
<g>
</g>
<g>
</g>
<g>
</g>
<g>
</g>
</svg>
