<?xml version="1.0" encoding="iso-8859-1"?>
<!-- Generator: Adobe Illustrator 19.0.0, SVG Export Plug-In . SVG Version: 6.00 Build 0)  -->
<svg version="1.1" id="Layer_1" xmlns="http://www.w3.org/2000/svg" xmlns:xlink="http://www.w3.org/1999/xlink" x="0px" y="0px"
	 viewBox="0 0 496.2 496.2" style="enable-background:new 0 0 496.2 496.2;" xml:space="preserve">
<path style="fill:#E04F5F;" d="M496.2,248.1C496.2,111.1,385.1,0,248.1,0S0,111.1,0,248.1s111.1,248.1,248.1,248.1
	S496.2,385.1,496.2,248.1z"/>
<rect x="368.1" y="252.3" style="fill:#8D8D8E;" width="48.1" height="12.5"/>
<rect x="377.5" y="252.3" style="fill:#A5A5A5;" width="13.5" height="12.5"/>
<rect x="82.8" y="186.8" style="fill:#8D8D8E;" width="88.9" height="23.7"/>
<g>
	<path style="fill:#CCCCCC;" d="M167.7,264.4c0,0,20.5-6.8,112.2-33.3c37.6-10.9,102.9-34.2,133.4-7.6c11,9.6,7.8,23.5,7.8,29.6H364
		l-195.3,80.3L167.7,264.4z"/>
	<path style="fill:#CCCCCC;" d="M174.8,202.5h-97c-1.7,0-3,1.4-3,3v157c0,1.7,1.4,3,3,3h97c1.7,0,3-1.4,3-3v-157
		C177.8,203.9,176.4,202.5,174.8,202.5z"/>
	<path style="fill:#CCCCCC;" d="M368.6,114.9l-1.8-5.3c-0.5-1.4-1.9-2.3-3.4-2c-45.1,7.9-270.3,47.5-277,51.4
		c-8,4.6-11.6,12.6-11.6,18v11.6c0,1.7,1.4,3,3,3h97c1.7,0,3-1.4,3-3v-10.7l188.8-59.2c0.8-0.2,1.4-0.8,1.8-1.5
		C368.8,116.5,368.9,115.7,368.6,114.9z"/>
</g>
<path style="fill:#91C5CE;" d="M400.6,295.2c-5.2-8.1-7.4-16.3-7.4-16.3l0,0c0,0-2.3,8.2-7.4,16.3c-6.3,12.7-16.5,19.5-16.5,35.5
	c0,13.8,10.1,25,23.9,25l0,0c13.8,0,23.9-11.2,23.9-25C417.1,314.6,406.9,307.9,400.6,295.2z"/>
<path style="fill:#B9E4EA;" d="M400.6,295.2c-5.2-8.1-7.4-16.3-7.4-16.3s-13.8,76.8,0,76.8l0,0c13.8,0,23.9-11.2,23.9-25
	C417.1,314.6,406.9,307.9,400.6,295.2z"/>
<path style="fill:#F2F7F7;" d="M394.5,351.6L394.5,351.6c10.8,0,18.7-8.8,18.7-19.6C413.2,319.5,383.7,351.6,394.5,351.6z"/>
<rect x="107.2" y="191.7" style="fill:#A5A5A5;" width="18" height="10.9"/>
<g>
	<rect x="107.2" y="202.5" style="fill:#E0E0E0;" width="18" height="163"/>
	<path style="fill:#E0E0E0;" d="M107.2,154.1v37.5h18v-41C118.5,151.9,112.4,153.1,107.2,154.1z"/>
</g>
<g>
</g>
<g>
</g>
<g>
</g>
<g>
</g>
<g>
</g>
<g>
</g>
<g>
</g>
<g>
</g>
<g>
</g>
<g>
</g>
<g>
</g>
<g>
</g>
<g>
</g>
<g>
</g>
<g>
</g>
</svg>
