<?xml version="1.0" encoding="iso-8859-1"?>
<!-- Generator: Adobe Illustrator 19.0.0, SVG Export Plug-In . SVG Version: 6.00 Build 0)  -->
<svg version="1.1" id="Layer_1" xmlns="http://www.w3.org/2000/svg" xmlns:xlink="http://www.w3.org/1999/xlink" x="0px" y="0px"
	 viewBox="0 0 496.359 496.359" style="enable-background:new 0 0 496.359 496.359;" xml:space="preserve">
<path style="fill:#FABC3D;" d="M496.267,248.179c0-137-111.1-248.1-248.1-248.1s-248.1,111.1-248.1,248.1s111.1,248.1,248.1,248.1
	S496.267,385.179,496.267,248.179z"/>
<path style="fill:#337180;" d="M211.967,493.579c135.5,20,261.6-73.6,281.7-209.2c2.3-15.8,3.1-31.6,2.5-47
	c-6.3,2.7-13.2,4.2-20.5,4.2c-19.5-0.1-36.4-11-45-27c-8.7,16-25.7,26.8-45.2,26.7c-19.3-0.1-36.1-10.8-44.8-26.6
	c-8.8,15.7-25.7,26.4-45,26.3c-19.4-0.1-36.2-10.9-44.9-26.8c-8.8,15.8-25.7,26.5-45.1,26.5c-19.3-0.1-36.1-10.8-44.8-26.6
	c-8.8,15.7-25.7,26.4-45,26.3c-19.5-0.1-36.4-11-45-27c-8.7,16-25.7,26.8-45.2,26.7c-9.2,0-17.8-2.5-25.2-6.7
	C-7.333,360.379,83.467,474.579,211.967,493.579z"/>
<path style="fill:#48A1AF;" d="M211.967,493.579c105.9,15.6,206-38.1,254.3-127c-12.4-6.1-21.6-17.2-25.5-30.2
	c-11.4,13.5-29.6,20.4-48,16.6c-18.3-3.8-32.2-17.2-37.4-33.9c-11.4,13.2-29.4,20.1-47.7,16.3c-18.4-3.8-32.3-17.3-37.4-34.1
	c-11.4,13.3-29.5,20.2-47.9,16.4c-18.3-3.8-32.2-17.2-37.4-33.9c-11.4,13.4-29.4,20.2-47.8,16.4c-18.5-3.8-32.4-17.4-37.5-34.3
	c-11.4,13.5-29.6,20.4-48,16.6c-18.3-3.8-32.2-17.2-37.4-33.9c-3.9,4.6-8.7,8.4-14,11.3
	C5.667,376.079,92.567,475.979,211.967,493.579z"/>
<path style="fill:#337180;" d="M268.867,75.479c-9.2-14.6-13.3-29.3-13.3-29.3l0,0c0,0-4.1,14.7-13.3,29.3
	c-11.4,22.9-29.5,35-29.5,63.8c0,24.8,18.1,44.9,42.9,44.9l0,0c24.8,0,42.9-20.1,42.9-44.9
	C298.467,110.479,280.267,98.379,268.867,75.479z"/>
<path style="fill:#48A1AF;" d="M268.867,75.479c-9.2-14.6-13.3-29.3-13.3-29.3s-24.8,137.9,0,137.9l0,0c24.8,0,42.9-20.1,42.9-44.9
	C298.467,110.479,280.267,98.379,268.867,75.479z"/>
<path style="fill:#F2F7F7;" d="M257.967,176.779L257.967,176.779c19.4,0,33.6-15.7,33.6-35.1
	C291.567,119.179,238.667,176.779,257.967,176.779z"/>
<g>
</g>
<g>
</g>
<g>
</g>
<g>
</g>
<g>
</g>
<g>
</g>
<g>
</g>
<g>
</g>
<g>
</g>
<g>
</g>
<g>
</g>
<g>
</g>
<g>
</g>
<g>
</g>
<g>
</g>
</svg>
